<svg version="1.2" xmlns="http://www.w3.org/2000/svg" viewBox="0 0 88 59" width="88" height="59">
	<title>play-svg</title>
	<style>
		.s0 { fill: #000000 } 
		.s1 { fill: #ffffff } 
	</style>
	<g id="layer1">
		<path id="rect1" class="s0" d="m0.9 5.3c0-2.5 2-4.5 4.5-4.5h77c2.5 0 4.5 2 4.5 4.5v48.5c0 2.5-2 4.5-4.5 4.5h-77c-2.5 0-4.5-2-4.5-4.5z"/>
		<path id="rect1-1" class="s1" d="m4.3 8.2c0-2.7 2.2-4.9 4.9-4.9h70c2.6 0 4.8 2.2 4.8 4.9v42.5c0 2.7-2.2 4.8-4.8 4.8h-70c-2.7 0-4.9-2.1-4.9-4.8z"/>
		<path id="path2" class="s0" d="m31.8 14.4l-0.4 30.5 29.7-15.7z"/>
	</g>
</svg>